<svg id="Capa_1" enable-background="new 0 0 512 512" height="512" viewBox="0 0 512 512" width="512" xmlns="http://www.w3.org/2000/svg"><g><g><g><g><path d="m97.724 461.999 47.757-9.766c3.505-.717 7.069.927 8.8 4.058l24.318 43.987c3.233 5.848 11.732 5.565 14.569-.485l105.271-224.497-104.602-49.05-105.161 224.263c-2.857 6.093 2.454 12.838 9.048 11.49z" fill="#b5e245"/><path d="m239.139 247.489-96.258 205.275 2.599-.531c3.505-.717 7.069.927 8.8 4.058l24.318 43.987c3.233 5.848 11.732 5.565 14.569-.485l105.271-224.497z" fill="#a8d340"/><path d="m414.276 461.999-47.757-9.766c-3.505-.717-7.069.927-8.8 4.058l-24.318 43.987c-3.233 5.848-11.732 5.565-14.569-.485l-105.271-224.497 104.602-49.05 105.161 224.262c2.857 6.094-2.454 12.839-9.048 11.491z" fill="#b5e245"/><path d="m423.324 450.509-105.161-224.263-59.029 27.68 96.588 205.979 1.998-3.614c1.731-3.131 5.295-4.774 8.8-4.058l47.757 9.766c6.593 1.348 11.904-5.397 9.047-11.49z" fill="#a8d340"/></g><g><path d="m280.354 20.366 5.485 8.04c8.216 12.043 24 16.272 37.137 9.951l8.77-4.22c18.714-9.005 40.624 3.645 42.182 24.354l.73 9.705c1.094 14.537 12.649 26.092 27.186 27.186l9.705.73c20.709 1.559 33.359 23.468 24.354 42.182l-4.22 8.77c-6.321 13.137-2.092 28.921 9.951 37.137l8.04 5.485c17.155 11.704 17.155 37.004 0 48.708l-8.04 5.485c-12.043 8.216-16.272 24-9.951 37.137l4.22 8.77c9.005 18.714-3.645 40.624-24.354 42.182l-9.705.73c-14.537 1.094-26.092 12.649-27.186 27.186l-.73 9.705c-1.559 20.709-23.468 33.359-42.182 24.354l-8.77-4.22c-13.137-6.321-28.921-2.092-37.137 9.951l-5.485 8.04c-11.704 17.155-37.004 17.155-48.708 0l-5.485-8.04c-8.216-12.043-24-16.272-37.137-9.951l-8.77 4.22c-18.714 9.005-40.624-3.645-42.182-24.354l-.73-9.705c-1.094-14.537-12.649-26.092-27.186-27.186l-9.705-.73c-20.709-1.559-33.359-23.468-24.354-42.182l4.22-8.77c6.321-13.137 2.092-28.921-9.951-37.137l-8.04-5.485c-17.155-11.704-17.155-37.004 0-48.708l8.04-5.485c12.043-8.216 16.272-24 9.951-37.137l-4.22-8.77c-9.005-18.714 3.645-40.624 24.354-42.182l9.705-.73c14.537-1.094 26.092-12.649 27.186-27.186l.73-9.705c1.559-20.709 23.468-33.359 42.182-24.354l8.77 4.22c13.137 6.321 28.921 2.092 37.137-9.951l5.485-8.04c11.704-17.155 37.004-17.155 48.708 0z" fill="#c6e873"/><circle cx="256" cy="214.041" fill="#f2f9ff" r="138.763"/><path d="m256 75.279c-11.252 0-22.188 1.349-32.664 3.877 60.873 14.689 106.099 69.502 106.099 134.886s-45.226 120.196-106.099 134.886c10.476 2.528 21.412 3.877 32.664 3.877 76.636 0 138.763-62.126 138.763-138.763s-62.127-138.763-138.763-138.763z" fill="#e2f4ff"/></g></g><g><g><g><path d="m258.404 135.441c-1.164-1.679-3.646-1.679-4.81 0-11.436 16.491-57.454 90.45-.743 139.648h6.297c56.71-49.198 10.692-123.157-.744-139.648z" fill="#c6e873"/></g><g><g><path d="m255.999 267.423c-.005-60.553-70.105-76.848-86.809-79.871-1.753-.318-3.284 1.213-2.967 2.967 2.702 14.929 16.014 72.502 62.043 84.571h27.732v-7.667z" fill="#b5e245"/></g><g><path d="m345.774 190.518c.317-1.753-1.213-3.284-2.967-2.967-16.704 3.023-86.803 19.318-86.808 79.871v7.666h27.732c46.029-12.068 59.341-69.64 62.043-84.57z" fill="#b5e245"/></g></g></g></g></g><g><path d="m445.862 178.007c-9.049-6.174-12.169-17.819-7.42-27.691 1.064-3.848 15.241-21.959 2.923-43.296-12.353-21.397-35.163-18.133-38.956-19.117-10.923-.822-19.449-9.347-20.271-20.271-1.003-3.864 2.219-26.638-19.118-38.956-21.396-12.353-39.518 1.878-43.296 2.923-9.871 4.75-21.517 1.629-27.691-7.42-2.8-2.845-11.396-24.179-36.033-24.179-24.707 0-33.284 21.386-36.034 24.179-6.174 9.05-17.819 12.169-27.691 7.42-3.848-1.064-21.958-15.242-43.295-2.923-21.397 12.354-18.133 35.163-19.118 38.957-.822 10.923-9.347 19.449-20.271 20.271-3.864 1.003-26.638-2.219-38.957 19.118-12.353 21.396 1.878 39.518 2.923 43.295 4.75 9.871 1.63 21.517-7.42 27.691-2.845 2.8-24.179 11.397-24.179 36.034 0 24.707 21.386 33.285 24.179 36.034 9.049 6.174 12.169 17.819 7.42 27.691-1.064 3.848-15.241 21.959-2.923 43.296 12.354 21.397 35.163 18.133 38.957 19.118 7.519.566 13.901 4.783 17.417 10.919l-45.123 96.226c-2.533 5.403-1.814 11.671 1.877 16.36s9.617 6.857 15.463 5.663l47.757-9.766c.296-.064.589.076.734.338l24.318 43.987c6.198 11.212 22.489 10.657 27.923-.929l14.491-30.903c1.759-3.75.144-8.215-3.606-9.974-3.748-1.759-8.215-.144-9.974 3.606l-14.491 30.903c-.062.132-.178.378-.596.393-.423-.002-.55-.225-.621-.353l-24.318-43.987c-3.334-6.032-10.113-9.155-16.865-7.776l-47.757 9.766c-.154.031-.413.085-.674-.247-.261-.331-.148-.57-.082-.713l36.181-77.157c2.441 9.562 8.626 17.845 17.333 22.872 21.399 12.355 39.518-1.878 43.296-2.923 9.871-4.749 21.517-1.63 27.691 7.42l5.485 8.039c.122.18.257.348.382.525l-10.01 21.347c-1.759 3.75-.144 8.215 3.606 9.974 3.726 1.748 8.204.167 9.974-3.606l8.025-17.114c5.56 3.23 11.942 5.015 18.571 5.015 6.628 0 13.011-1.784 18.571-5.015l37.471 79.909c5.439 11.598 21.731 12.13 27.922.93l24.318-43.987c.145-.262.44-.4.735-.338l47.757 9.766c5.85 1.197 11.772-.975 15.462-5.663 3.692-4.688 4.411-10.957 1.878-16.36l-45.123-96.227c3.516-6.136 9.898-10.353 17.418-10.919 3.864-1.003 26.638 2.219 38.956-19.117 12.353-21.397-1.878-39.519-2.923-43.296-4.75-9.871-1.629-21.517 7.419-27.691 2.845-2.8 24.18-11.397 24.18-36.034.002-24.71-21.383-33.287-24.177-36.037zm-29.41 276.398c-.26.331-.518.279-.673.247l-47.757-9.766c-6.752-1.378-13.531 1.744-16.865 7.776l-24.319 43.988c-.07.127-.194.35-.62.352-.418-.014-.534-.26-.596-.393l-39.455-84.141c.125-.177.26-.345.382-.525l5.485-8.039c6.174-9.049 17.819-12.17 27.691-7.42 3.848 1.064 21.96 15.242 43.296 2.923 8.707-5.027 14.892-13.31 17.332-22.872l36.181 77.158c.067.142.179.381-.082.712zm20.957-216.719c-15.222 10.386-20.472 29.978-12.482 46.584 1.497 4.803 11.269 15.748 3.448 29.294-7.812 13.531-22.094 10.534-27.093 11.66-18.376 1.383-32.719 15.725-34.102 34.102-1.105 4.908 1.886 19.272-11.66 27.093-13.531 7.812-24.402-1.924-29.294-3.448-16.607-7.991-36.197-2.741-46.584 12.482-3.318 3.332-7.605 17.633-23.644 17.633-16.073 0-20.02-13.995-23.644-17.634-7.126-10.444-18.584-16.194-30.439-16.194-20.322 0-27.908 17.281-45.437 7.161-6.392-3.691-10.376-10.028-10.929-17.388l-.73-9.705c-1.383-18.376-15.725-32.719-34.102-34.102-4.957-1.116-19.273 1.885-27.093-11.66-7.813-13.53 1.924-24.401 3.448-29.293 7.991-16.606 2.741-36.197-12.482-46.584-3.735-3.445-17.633-8.004-17.633-23.645 0-15.624 13.867-20.17 17.633-23.644 15.223-10.386 20.473-29.977 12.482-46.584-1.497-4.803-11.27-15.748-3.448-29.293 7.812-13.531 22.094-10.535 27.093-11.66 18.376-1.383 32.719-15.725 34.102-34.102 1.105-4.908-1.886-19.273 11.66-27.093 13.532-7.811 24.401 1.924 29.293 3.449 16.571 7.973 36.176 2.772 46.584-12.482 3.411-3.698 8.003-17.633 23.644-17.633 15.624 0 20.171 13.867 23.645 17.633 10.386 15.223 29.98 20.472 46.584 12.482 4.803-1.498 15.748-11.27 29.293-3.449 13.531 7.812 10.535 22.094 11.66 27.093 1.383 18.376 15.725 32.719 34.102 34.102 4.957 1.116 19.272-1.885 27.093 11.66 7.812 13.531-1.924 24.401-3.449 29.293-7.991 16.607-2.741 36.198 12.482 46.584 3.698 3.411 17.634 8.003 17.634 23.644-.001 15.623-13.869 20.17-17.635 23.644z"/><path d="m256 67.779c-80.649 0-146.262 65.613-146.262 146.262s65.613 146.263 146.262 146.263c35.365 0 69.5-12.79 96.117-36.014 26.358-22.998 43.626-54.631 48.623-89.074.595-4.099-2.246-7.904-6.345-8.498-4.098-.592-7.903 2.246-8.498 6.345-9.329 64.297-64.717 112.242-129.897 112.242-72.379 0-131.263-58.884-131.263-131.263s58.884-131.264 131.263-131.264c67.017 0 123.102 50.152 130.46 116.657.456 4.117 4.158 7.08 8.279 6.629 4.117-.456 7.085-4.162 6.629-8.279-8.2-74.115-70.694-130.006-145.368-130.006z"/><path d="m353.154 191.854c1.247-6.897-4.788-12.936-11.682-11.681-8.316 1.505-29.004 6.108-48.659 17.235-5.013-30.013-20.961-55.736-28.246-66.241-4.145-5.974-12.99-5.973-17.135.001-7.285 10.505-23.233 36.228-28.246 66.24-19.655-11.127-40.343-15.73-48.657-17.235-6.914-1.248-12.932 4.796-11.684 11.681 4.924 27.208 17.713 57.78 39.168 75.736h-24.506c-4.142 0-7.499 3.358-7.499 7.499s3.358 7.499 7.499 7.499h164.987c4.142 0 7.499-3.358 7.499-7.499s-3.358-7.499-7.499-7.499h-24.508c21.458-17.959 34.243-48.533 39.168-75.736zm-97.155-46.437c7.514 11.946 20.411 35.71 22.92 61.273-10.128 7.989-17.81 17.279-22.92 27.662-5.11-10.382-12.792-19.673-22.92-27.662 2.508-25.562 15.407-49.328 22.92-61.273zm-80.848 51.046c38.596 9.136 73.346 31.431 73.349 70.96v.167h-19.158c-35.644-9.944-49.645-52.208-54.191-71.127zm88.347 71.126v-.167c.003-39.465 34.653-61.801 73.349-70.96-4.545 18.916-18.545 61.182-54.191 71.127z"/></g></g></svg>